<svg width="38" height="38" viewBox="0 0 38 38" fill="none" xmlns="http://www.w3.org/2000/svg">
<path fill-rule="evenodd" clip-rule="evenodd" d="M29.6875 38C30.6771 38 31.5182 37.6536 32.2109 36.9609C32.9036 36.2682 33.25 35.4271 33.25 34.4375V7.125H35.1797C35.2786 7.125 35.3776 7.07552 35.4766 6.97656C35.5755 6.8776 35.625 6.77865 35.625 6.67969V6.53125C35.625 6.03646 35.4518 5.61589 35.1055 5.26953C34.7591 4.92318 34.3385 4.75 33.8438 4.75H27.3125L24.7891 1.41016C24.0964 0.470052 23.1562 0 21.9688 0H16.0312C14.8438 0 13.9036 0.470052 13.2109 1.41016L10.6875 4.75H4.15625C3.66146 4.75 3.24089 4.92318 2.89453 5.26953C2.54818 5.61589 2.375 6.03646 2.375 6.53125V6.67969C2.375 6.77865 2.42448 6.8776 2.52344 6.97656C2.6224 7.07552 2.72135 7.125 2.82031 7.125H4.75V34.4375C4.75 35.4271 5.09635 36.2682 5.78906 36.9609C6.48177 37.6536 7.32292 38 8.3125 38H29.6875ZM24.3438 4.75001H13.6562L15.0664 2.82033C15.3138 2.52345 15.6354 2.37501 16.0312 2.37501H21.9688C22.3646 2.37501 22.6862 2.52345 22.9336 2.82033L24.3438 4.75001ZM29.6875 35.625H8.3125C7.96615 35.625 7.68164 35.5137 7.45898 35.291C7.23633 35.0683 7.125 34.7838 7.125 34.4375V7.12499H30.875V34.4375C30.875 34.7838 30.7637 35.0683 30.541 35.291C30.3184 35.5137 30.0339 35.625 29.6875 35.625ZM19.2969 32.0625C19.5443 32.0625 19.7546 31.9759 19.9277 31.8027C20.1009 31.6296 20.1875 31.4193 20.1875 31.1719V11.5781C20.1875 11.3307 20.1009 11.1205 19.9277 10.9473C19.7546 10.7741 19.5443 10.6875 19.2969 10.6875H18.7031C18.4557 10.6875 18.2454 10.7741 18.0723 10.9473C17.8991 11.1205 17.8125 11.3307 17.8125 11.5781V31.1719C17.8125 31.4193 17.8991 31.6296 18.0723 31.8027C18.2454 31.9759 18.4557 32.0625 18.7031 32.0625H19.2969ZM13.3594 32.0625C13.6068 32.0625 13.8171 31.9759 13.9902 31.8027C14.1634 31.6296 14.25 31.4193 14.25 31.1719V11.5781C14.25 11.3307 14.1634 11.1205 13.9902 10.9473C13.8171 10.7741 13.6068 10.6875 13.3594 10.6875H12.7656C12.5182 10.6875 12.3079 10.7741 12.1348 10.9473C11.9616 11.1205 11.875 11.3307 11.875 11.5781V31.1719C11.875 31.4193 11.9616 31.6296 12.1348 31.8027C12.3079 31.9759 12.5182 32.0625 12.7656 32.0625H13.3594ZM25.2344 32.0625C25.4818 32.0625 25.6921 31.9759 25.8652 31.8027C26.0384 31.6296 26.125 31.4193 26.125 31.1719V11.5781C26.125 11.3307 26.0384 11.1205 25.8652 10.9473C25.6921 10.7741 25.4818 10.6875 25.2344 10.6875H24.6406C24.3932 10.6875 24.1829 10.7741 24.0098 10.9473C23.8366 11.1205 23.75 11.3307 23.75 11.5781V31.1719C23.75 31.4193 23.8366 31.6296 24.0098 31.8027C24.1829 31.9759 24.3932 32.0625 24.6406 32.0625H25.2344Z" fill="#007298"/>
</svg>
