<svg width="38" height="38" viewBox="0 0 38 38" fill="none" xmlns="http://www.w3.org/2000/svg">
<path fill-rule="evenodd" clip-rule="evenodd" d="M1.97825 37.9887L10.4528 37.0471L36.6087 10.8912C38.4636 9.03619 38.4636 6.0286 36.6086 4.17372L33.8261 1.39124C31.9713 -0.463712 28.9637 -0.463785 27.1086 1.39124L0.952744 27.5471L0.0111685 36.0216C-0.114873 37.1561 0.843881 38.1148 1.97825 37.9887ZM31.2227 12.9184L25.0815 6.77725L28.788 3.07067C29.7161 2.14257 31.2185 2.14243 32.1468 3.07067L34.9292 5.85314C35.8574 6.78131 35.8575 8.28358 34.9292 9.21189L31.2227 12.9184ZM12.914 31.2271V28.6484H9.35151V25.0859H6.77278L23.4022 8.45659L29.5433 14.5977L12.914 31.2271ZM4.98392 35.2652L2.73468 33.016L3.22123 28.6374L4.69466 27.164H7.27339V30.7265H10.8359V33.3052L9.36246 34.7787L4.98392 35.2652Z" fill="#007298"/>
</svg>
